<svg width="55" height="55" viewBox="0 0 55 55" fill="none" xmlns="http://www.w3.org/2000/svg">
<rect x="5" y="4" width="44" height="45" fill="#292929"/>
<path d="M43.5417 0H11.4583C5.13104 0 0 5.13104 0 11.4583V43.5417C0 49.869 5.13104 55 11.4583 55H43.5417C49.8713 55 55 49.869 55 43.5417V11.4583C55 5.13104 49.8713 0 43.5417 0ZM33.3071 44.8938C32.379 45.0725 32.0833 44.5019 32.0833 44.0138V38.9835C32.0833 37.2717 31.4829 36.1579 30.8229 35.5896C34.9067 35.1358 39.1967 33.5844 39.1967 26.5444C39.1967 24.5415 38.4817 22.9052 37.3106 21.6242C37.4985 21.1612 38.1265 19.2958 37.1296 16.7727C37.1296 16.7727 35.5919 16.28 32.0925 18.6519C30.6258 18.2394 29.0583 18.04 27.5 18.0308C25.9417 18.0377 24.3742 18.2394 22.9098 18.6473C19.4081 16.2754 17.8681 16.7681 17.8681 16.7681C16.8735 19.2935 17.5015 21.1567 17.6917 21.6219C16.5183 22.9052 15.8033 24.5392 15.8033 26.5421C15.8033 33.5638 20.0819 35.1381 24.1565 35.6033C23.6317 36.0617 23.1573 36.8683 22.9923 38.0554C21.945 38.5229 19.2935 39.3319 17.6573 36.5292C17.6573 36.5292 16.6879 34.7692 14.8454 34.6385C14.8454 34.6385 13.0579 34.6156 14.7194 35.7546C14.7194 35.7546 15.9225 36.3183 16.7567 38.4358C16.7567 38.4358 17.8177 41.7083 22.9167 40.5992V44.0115C22.9167 44.495 22.621 45.0633 21.7067 44.8938C14.4192 42.4715 9.16667 35.5988 9.16667 27.5C9.16667 17.3731 17.3754 9.16667 27.5 9.16667C37.6246 9.16667 45.8333 17.3731 45.8333 27.5C45.8333 35.5965 40.5877 42.4669 33.3071 44.8938Z" fill="#AEEDBB"/>
</svg>
