<svg width="55" height="55" viewBox="0 0 55 55" fill="none" xmlns="http://www.w3.org/2000/svg">
<path d="M46.9434 0H8.05664C3.61458 0 0 3.61458 0 8.05664V46.9434C0 51.3854 3.61458 55 8.05664 55H46.9434C51.3854 55 55 51.3854 55 46.9434V8.05664C55 3.61458 51.3854 0 46.9434 0ZM19.4434 43.6133H12.998V21.0547H19.4434V43.6133ZM19.4434 17.832H12.998V11.3867H19.4434V17.832ZM42.002 43.6133H35.5566V30.7227C35.5566 28.946 34.1106 27.5 32.334 27.5C30.5573 27.5 29.1113 28.946 29.1113 30.7227V43.6133H22.666V21.0547H29.1113V22.2695C30.7999 21.7445 31.8967 21.0547 33.9453 21.0547C38.3165 21.0593 42.002 24.9806 42.002 29.6149V43.6133Z" fill="#AEEDBB"/>
</svg>
