<svg width="128" height="69" viewBox="0 0 128 69" fill="none" xmlns="http://www.w3.org/2000/svg">
<path d="M35.2396 35.2467C35.1151 35.4785 34.9323 35.6738 34.7092 35.8133C34.486 35.9527 34.2304 36.0314 33.9674 36.0417C33.0796 36.0552 31.635 34.9285 31.383 34.7297C31.131 34.531 28.9578 32.2516 27.2875 31.5625C26.3885 31.1791 25.4138 31.0061 24.4377 31.0566C23.4616 31.1071 22.51 31.3799 21.6553 31.854C21.6553 31.854 17.7638 33.8064 15.4666 40.6976C13.1694 47.5889 13.1342 53.1724 15.6078 55.187C18.0814 57.2015 20.9794 55.6452 22.9232 54.8335C24.8669 54.0219 28.1178 52.077 29.2136 51.9713C30.3093 51.8656 31.0158 52.148 30.6272 54.0563C30.2386 55.9645 27.4113 63.3641 26.7036 64.4238C25.0031 65.7003 23.0925 66.6695 21.0582 67.2877C18.1704 68.1301 15.1167 68.2303 12.1799 67.5793C9.5293 67.0225 6.52558 65.238 3.80454 62.305C1.0835 59.372 -0.542077 53.3512 0.164747 46.2127C0.871571 39.0743 5.07671 31.1229 9.883 26.2814C14.6893 21.4398 19.0004 19.8143 23.2414 19.637C27.4823 19.4597 32.827 21.7849 35.9287 25.9185C36.0627 26.1212 36.1613 26.3452 36.2202 26.5809C36.2202 26.5809 36.5118 33.6122 35.2396 35.2467Z" fill="#51E678"/>
<path d="M56.8407 20.9501L44.9401 67.9642H37.5454C37.5454 67.9642 34.1264 68.0968 33.1984 66.8776C32.2705 65.6584 32.4564 64.5452 33.0132 61.8943C33.5699 59.2435 41.4149 28.0264 41.4149 28.0264C41.4149 28.0264 42.5014 23.6797 43.5342 22.5665C44.5669 21.4533 45.8666 20.9498 48.2253 20.9498L56.8407 20.9501Z" fill="#51E678"/>
<path d="M54.6936 0.00285326C54.6936 0.00285326 58.4837 -0.156096 60.4452 1.93774C62.4068 4.03158 61.6908 6.46995 60.9221 7.63701C60.1534 8.80407 58.1126 12.0369 51.8047 12.0369C45.4968 12.0369 45.4181 7.95519 45.4181 7.26613C45.4913 5.75762 46.1245 4.33063 47.1937 3.26404C49.0218 1.35464 51.1953 0.00285326 54.6936 0.00285326Z" fill="#51E678"/>
<path d="M65.8524 20.9501H59.8358L57.2914 31.2074H63.3078L53.8988 67.9685H63.4404C63.4404 67.9685 67.5221 68.1231 68.9532 62.7163C70.3843 57.3094 76.9044 31.2337 76.9044 31.2337H82.3115C82.3115 31.2337 83.8752 31.2337 84.4595 30.8098C85.0437 30.386 85.6257 30.2267 86.0765 28.4508C86.5272 26.6749 87.4283 23.2029 87.4283 23.2029C87.4283 23.2029 87.7198 22.1956 87.1104 21.6392C86.5479 21.167 85.8297 20.9213 85.0959 20.9501H79.7689L84.1158 4.27874C84.1158 4.27874 84.5927 2.76801 83.9302 1.68142C83.2678 0.594839 82.073 0.090783 80.0312 0.090783C77.9895 0.090783 75.5784 0.965434 74.1206 1.54854C72.6629 2.13164 71.0462 3.21822 70.3038 4.22547L65.8524 20.9501Z" fill="#51E678"/>
<path d="M75.4735 54.3289V62.3993C75.4735 62.3993 76.0214 62.47 77.2231 61.7809C78.4248 61.0919 84.9799 55.7953 85.9164 55.3539C86.8529 54.9126 89.1675 53.6224 91.1465 55.7073C93.1255 57.7923 95.1397 60.8089 96.2355 62.0284C97.3312 63.2478 97.4899 63.3358 98.1437 64.0781C99.4663 65.5534 101.183 66.6201 103.091 67.1526C105.724 67.8769 110.689 68.6369 116.874 66.6754C123.058 64.7139 124.79 63.8132 126.521 61.4805C128.253 59.1478 127.634 54.983 127.299 54.4174C127.101 54.0913 126.963 53.7324 126.892 53.3577C126.233 53.4072 125.591 53.5873 125.002 53.8876C124.048 54.3825 122.723 54.9833 121.574 55.5664C120.425 56.1495 116.238 57.2805 115.867 57.3512C115.496 57.422 113.305 57.5454 112.651 57.2275C111.877 56.8655 111.208 56.3121 110.707 55.6197C109.926 54.4301 109.224 53.1906 108.605 51.9092C108.232 51.0082 107.35 49.3296 107.05 47.5448C106.749 45.76 105.884 43.958 105.371 43.569C104.859 43.1801 102.632 41.9612 100.229 41.2721C97.8261 40.5831 96.289 41.0069 95.7589 41.2721C95.2288 41.5374 93.727 42.1379 92.8789 42.6325C92.0309 43.1271 86.8182 46.3431 83.7968 48.3398C80.7753 50.3366 77.9657 52.2271 77.0825 52.9161C76.1993 53.6052 75.8974 53.7633 75.4735 54.3289Z" fill="#51E678"/>
<path d="M105.768 17.7173C105.768 17.7173 100.679 19.4666 98.002 21.5338C95.325 23.601 95.1394 23.7339 94.8745 25.7481C94.6096 27.7623 95.2984 30.148 97.79 30.837C100.282 31.5261 103.382 31.2093 105.052 30.9167C106.722 30.624 110.539 29.194 112.129 27.8952C113.719 26.5964 114.541 24.6618 114.779 24.3172C115.018 23.9727 115.295 22.9125 115.839 21.8124C116.383 20.7124 117.032 19.6788 117.018 18.4596C117.005 17.2404 116.753 15.8357 113.745 15.8491C110.737 15.8626 107.671 16.9935 105.768 17.7173Z" fill="#51E678"/>
</svg>
